<svg xmlns="http://www.w3.org/2000/svg" xmlns:xlink="http://www.w3.org/1999/xlink" width="170" zoomAndPan="magnify" viewBox="0 0 127.5 37.5" height="50" preserveAspectRatio="xMidYMid meet" version="1.0"><defs><linearGradient id="skillflow-gradient" x1="0%" y1="0%" x2="100%" y2="100%"><stop offset="0%" style="stop-color:#4F46E5;stop-opacity:1" /><stop offset="50%" style="stop-color:#7C3AED;stop-opacity:1" /><stop offset="100%" style="stop-color:#EC4899;stop-opacity:1" /></linearGradient><g/><clipPath id="b27eb17f4b"><path d="M 0.0664062 5 L 122.988281 5 L 122.988281 29.449219 L 0.0664062 29.449219 Z M 0.0664062 5 " clip-rule="nonzero"/></clipPath><clipPath id="f2dec45aaf"><path d="M 0.0664062 1 L 14 1 L 14 19 L 0.0664062 19 Z M 0.0664062 1 " clip-rule="nonzero"/></clipPath><clipPath id="ee5af9b946"><path d="M 96 1 L 122.75 1 L 122.75 19 L 96 19 Z M 96 1 " clip-rule="nonzero"/></clipPath><clipPath id="9b193679d6"><rect x="0" width="123" y="0" height="25"/></clipPath><clipPath id="dfff2a2a2a"><path d="M 79.722656 7.058594 L 96.082031 7.058594 L 96.082031 23.417969 L 79.722656 23.417969 Z M 79.722656 7.058594 " clip-rule="nonzero"/></clipPath><clipPath id="48746089ea"><path d="M 87.902344 7.058594 C 83.386719 7.058594 79.722656 10.722656 79.722656 15.238281 C 79.722656 19.757812 83.386719 23.417969 87.902344 23.417969 C 92.421875 23.417969 96.082031 19.757812 96.082031 15.238281 C 96.082031 10.722656 92.421875 7.058594 87.902344 7.058594 Z M 87.902344 7.058594 " clip-rule="nonzero"/></clipPath><clipPath id="93afa131c7"><path d="M 0.722656 0.0585938 L 17.082031 0.0585938 L 17.082031 16.417969 L 0.722656 16.417969 Z M 0.722656 0.0585938 " clip-rule="nonzero"/></clipPath><clipPath id="ed4ef59e2d"><path d="M 8.902344 0.0585938 C 4.386719 0.0585938 0.722656 3.722656 0.722656 8.238281 C 0.722656 12.757812 4.386719 16.417969 8.902344 16.417969 C 13.421875 16.417969 17.082031 12.757812 17.082031 8.238281 C 17.082031 3.722656 13.421875 0.0585938 8.902344 0.0585938 Z M 8.902344 0.0585938 " clip-rule="nonzero"/></clipPath><clipPath id="b2304bd611"><rect x="0" width="18" y="0" height="17"/></clipPath><clipPath id="6294a8e6f9"><path d="M 28.714844 0.699219 L 33.285156 0.699219 L 33.285156 5.273438 L 28.714844 5.273438 Z M 28.714844 0.699219 " clip-rule="nonzero"/></clipPath><clipPath id="7ce44542de"><path d="M 31 0.699219 C 29.738281 0.699219 28.714844 1.722656 28.714844 2.988281 C 28.714844 4.25 29.738281 5.273438 31 5.273438 C 32.261719 5.273438 33.285156 4.25 33.285156 2.988281 C 33.285156 1.722656 32.261719 0.699219 31 0.699219 Z M 31 0.699219 " clip-rule="nonzero"/></clipPath><clipPath id="156138e002"><path d="M 0.714844 0.699219 L 5.285156 0.699219 L 5.285156 5.273438 L 0.714844 5.273438 Z M 0.714844 0.699219 " clip-rule="nonzero"/></clipPath><clipPath id="b0e8dbd87a"><path d="M 3 0.699219 C 1.738281 0.699219 0.714844 1.722656 0.714844 2.988281 C 0.714844 4.25 1.738281 5.273438 3 5.273438 C 4.261719 5.273438 5.285156 4.25 5.285156 2.988281 C 5.285156 1.722656 4.261719 0.699219 3 0.699219 Z M 3 0.699219 " clip-rule="nonzero"/></clipPath><clipPath id="9e465410ba"><rect x="0" width="6" y="0" height="6"/></clipPath><clipPath id="0af72a945d"><path d="M 97.042969 0.699219 L 122.820312 0.699219 L 122.820312 2.988281 L 97.042969 2.988281 Z M 97.042969 0.699219 " clip-rule="nonzero"/></clipPath><clipPath id="95439e4b9c"><path d="M 0.0429688 0.699219 L 25.820312 0.699219 L 25.820312 2.988281 L 0.0429688 2.988281 Z M 0.0429688 0.699219 " clip-rule="nonzero"/></clipPath><clipPath id="2622c59120"><rect x="0" width="26" y="0" height="3"/></clipPath><clipPath id="1a9b175b7e"><rect x="0" width="123" y="0" height="30"/></clipPath></defs><g transform="matrix(1, 0, 0, 1, 1, 3)"><g clip-path="url(#1a9b175b7e)"><g clip-path="url(#b27eb17f4b)"><g transform="matrix(1, 0, 0, 1, 0.000000000000000222, 5)"><g clip-path="url(#9b193679d6)"><g clip-path="url(#f2dec45aaf)"><g fill="url(#skillflow-gradient)" fill-opacity="1"><g transform="translate(0.366256, 18.93491)"><g><path d="M 8.234375 -0.078125 C 8.023438 -0.0546875 7.816406 -0.0390625 7.609375 -0.03125 C 7.398438 -0.03125 7.191406 -0.03125 6.984375 -0.03125 C 5.785156 -0.0390625 4.609375 -0.238281 3.453125 -0.625 C 2.296875 -1.019531 1.269531 -1.625 0.375 -2.4375 C 0.3125 -2.5 0.234375 -2.578125 0.140625 -2.671875 C 0.046875 -2.773438 0.0078125 -2.878906 0.03125 -2.984375 C 0.0390625 -3.035156 0.0625 -3.082031 0.09375 -3.125 C 0.125 -3.164062 0.148438 -3.203125 0.171875 -3.234375 C 0.347656 -3.421875 0.515625 -3.601562 0.671875 -3.78125 C 0.828125 -3.96875 0.984375 -4.160156 1.140625 -4.359375 C 1.273438 -4.492188 1.398438 -4.65625 1.515625 -4.84375 C 1.640625 -5.03125 1.804688 -5.128906 2.015625 -5.140625 C 2.148438 -5.140625 2.285156 -5.101562 2.421875 -5.03125 C 2.929688 -4.800781 3.4375 -4.546875 3.9375 -4.265625 C 4.4375 -3.984375 4.945312 -3.738281 5.46875 -3.53125 C 5.988281 -3.332031 6.519531 -3.226562 7.0625 -3.21875 C 7.601562 -3.207031 8.148438 -3.351562 8.703125 -3.65625 C 8.867188 -3.738281 9.019531 -3.835938 9.15625 -3.953125 C 9.300781 -4.078125 9.414062 -4.210938 9.5 -4.359375 C 9.6875 -4.703125 9.734375 -5.015625 9.640625 -5.296875 C 9.546875 -5.585938 9.363281 -5.847656 9.09375 -6.078125 C 8.832031 -6.316406 8.539062 -6.519531 8.21875 -6.6875 C 7.90625 -6.851562 7.628906 -6.984375 7.390625 -7.078125 C 6.867188 -7.304688 6.332031 -7.492188 5.78125 -7.640625 C 5.238281 -7.796875 4.695312 -7.960938 4.15625 -8.140625 C 3.632812 -8.304688 3.125 -8.515625 2.625 -8.765625 C 2.132812 -9.023438 1.722656 -9.378906 1.390625 -9.828125 C 0.941406 -10.398438 0.679688 -11.066406 0.609375 -11.828125 C 0.535156 -12.585938 0.578125 -13.3125 0.734375 -14 C 0.867188 -14.632812 1.128906 -15.191406 1.515625 -15.671875 C 1.910156 -16.160156 2.382812 -16.554688 2.9375 -16.859375 C 3.976562 -17.472656 5.238281 -17.78125 6.71875 -17.78125 C 7.34375 -17.78125 7.960938 -17.722656 8.578125 -17.609375 C 9.191406 -17.492188 9.789062 -17.332031 10.375 -17.125 C 10.695312 -17.007812 11.023438 -16.882812 11.359375 -16.75 C 11.691406 -16.613281 11.976562 -16.453125 12.21875 -16.265625 C 12.457031 -16.085938 12.609375 -15.851562 12.671875 -15.5625 C 12.742188 -15.28125 12.664062 -14.929688 12.4375 -14.515625 C 12.375 -14.359375 12.296875 -14.207031 12.203125 -14.0625 C 12.109375 -13.914062 12.007812 -13.78125 11.90625 -13.65625 C 11.832031 -13.5 11.738281 -13.390625 11.625 -13.328125 C 11.4375 -13.203125 11.234375 -13.191406 11.015625 -13.296875 C 10.796875 -13.410156 10.609375 -13.515625 10.453125 -13.609375 C 9.878906 -13.972656 9.269531 -14.25 8.625 -14.4375 C 7.976562 -14.632812 7.3125 -14.691406 6.625 -14.609375 C 6.175781 -14.566406 5.757812 -14.425781 5.375 -14.1875 C 5 -13.957031 4.75 -13.664062 4.625 -13.3125 C 4.507812 -12.957031 4.625 -12.546875 4.96875 -12.078125 C 5.351562 -11.585938 5.835938 -11.210938 6.421875 -10.953125 C 7.003906 -10.703125 7.613281 -10.5 8.25 -10.34375 C 8.882812 -10.195312 9.472656 -10.007812 10.015625 -9.78125 C 10.429688 -9.625 10.84375 -9.4375 11.25 -9.21875 C 11.65625 -9.007812 12.019531 -8.742188 12.34375 -8.421875 C 12.789062 -7.992188 13.101562 -7.46875 13.28125 -6.84375 C 13.46875 -6.21875 13.546875 -5.578125 13.515625 -4.921875 C 13.484375 -4.273438 13.347656 -3.671875 13.109375 -3.109375 C 12.835938 -2.472656 12.441406 -1.9375 11.921875 -1.5 C 11.398438 -1.070312 10.820312 -0.742188 10.1875 -0.515625 C 9.550781 -0.285156 8.898438 -0.140625 8.234375 -0.078125 Z M 8.234375 -0.078125 "/></g></g></g></g><g fill="url(#skillflow-gradient)" fill-opacity="1"><g transform="translate(13.956092, 18.93491)"><g><path d="M 10.265625 -0.859375 C 10.035156 -1.128906 9.828125 -1.414062 9.640625 -1.71875 C 9.460938 -2.019531 9.269531 -2.316406 9.0625 -2.609375 C 8.613281 -3.210938 8.164062 -3.816406 7.71875 -4.421875 C 7.28125 -5.023438 6.835938 -5.625 6.390625 -6.21875 C 6.160156 -6.539062 5.925781 -6.703125 5.6875 -6.703125 C 5.445312 -6.703125 5.21875 -6.601562 5 -6.40625 C 4.789062 -6.21875 4.601562 -5.988281 4.4375 -5.71875 C 4.28125 -5.445312 4.15625 -5.191406 4.0625 -4.953125 C 3.851562 -4.441406 3.738281 -3.898438 3.71875 -3.328125 C 3.695312 -2.765625 3.707031 -2.210938 3.75 -1.671875 C 3.78125 -1.367188 3.78125 -1.0625 3.75 -0.75 C 3.71875 -0.4375 3.515625 -0.265625 3.140625 -0.234375 C 2.960938 -0.234375 2.773438 -0.238281 2.578125 -0.25 C 2.390625 -0.257812 2.207031 -0.265625 2.03125 -0.265625 C 1.789062 -0.265625 1.515625 -0.242188 1.203125 -0.203125 C 0.890625 -0.160156 0.625 -0.171875 0.40625 -0.234375 C 0.101562 -0.316406 -0.03125 -0.476562 0 -0.71875 C 0.03125 -0.957031 0.046875 -1.21875 0.046875 -1.5 C 0.046875 -2.03125 0.046875 -2.554688 0.046875 -3.078125 C 0.046875 -3.609375 0.0390625 -4.128906 0.03125 -4.640625 C 0.03125 -6.742188 0.03125 -8.84375 0.03125 -10.9375 C 0.03125 -13.039062 0.0351562 -15.132812 0.046875 -17.21875 C 0.046875 -17.414062 0.125 -17.546875 0.28125 -17.609375 C 0.445312 -17.679688 0.628906 -17.726562 0.828125 -17.75 C 1.023438 -17.769531 1.1875 -17.769531 1.3125 -17.75 C 1.519531 -17.726562 1.71875 -17.703125 1.90625 -17.671875 C 2.101562 -17.640625 2.304688 -17.617188 2.515625 -17.609375 C 2.609375 -17.609375 2.703125 -17.609375 2.796875 -17.609375 C 2.890625 -17.617188 2.976562 -17.609375 3.0625 -17.578125 C 3.1875 -17.566406 3.3125 -17.503906 3.4375 -17.390625 C 3.570312 -17.273438 3.644531 -17.148438 3.65625 -17.015625 C 3.71875 -16.242188 3.757812 -15.476562 3.78125 -14.71875 C 3.8125 -13.96875 3.875 -13.207031 3.96875 -12.4375 C 4 -12.226562 4.054688 -12.015625 4.140625 -11.796875 C 4.234375 -11.585938 4.410156 -11.484375 4.671875 -11.484375 C 4.828125 -11.484375 4.96875 -11.546875 5.09375 -11.671875 C 5.269531 -11.847656 5.445312 -12.023438 5.625 -12.203125 C 5.800781 -12.378906 5.96875 -12.546875 6.125 -12.703125 C 6.539062 -13.085938 6.9375 -13.484375 7.3125 -13.890625 C 7.695312 -14.296875 8.039062 -14.738281 8.34375 -15.21875 C 8.90625 -16.101562 9.566406 -16.738281 10.328125 -17.125 C 11.097656 -17.519531 12.082031 -17.71875 13.28125 -17.71875 C 13.59375 -17.71875 13.898438 -17.707031 14.203125 -17.6875 C 14.515625 -17.675781 14.703125 -17.597656 14.765625 -17.453125 C 14.835938 -17.316406 14.691406 -17.039062 14.328125 -16.625 C 13.492188 -15.695312 12.660156 -14.769531 11.828125 -13.84375 C 11.003906 -12.925781 10.171875 -12.019531 9.328125 -11.125 C 8.992188 -10.769531 8.796875 -10.429688 8.734375 -10.109375 C 8.679688 -9.796875 8.710938 -9.492188 8.828125 -9.203125 C 8.953125 -8.921875 9.101562 -8.648438 9.28125 -8.390625 C 10.144531 -7.234375 11.007812 -6.070312 11.875 -4.90625 C 12.75 -3.738281 13.609375 -2.566406 14.453125 -1.390625 C 14.609375 -1.179688 14.734375 -0.972656 14.828125 -0.765625 C 14.921875 -0.554688 14.925781 -0.382812 14.84375 -0.25 C 14.769531 -0.113281 14.550781 -0.0390625 14.1875 -0.03125 C 13.894531 -0.0078125 13.601562 -0.0195312 13.3125 -0.0625 C 13.03125 -0.101562 12.738281 -0.125 12.4375 -0.125 C 12.070312 -0.125 11.726562 -0.128906 11.40625 -0.140625 C 11.09375 -0.160156 10.789062 -0.3125 10.5 -0.59375 C 10.382812 -0.707031 10.304688 -0.796875 10.265625 -0.859375 Z M 10.265625 -0.859375 "/></g></g></g><g fill="url(#skillflow-gradient)" fill-opacity="1"><g transform="translate(28.909728, 18.93491)"><g><path d="M 0.8125 -17.75 C 0.832031 -17.75 0.847656 -17.75 0.859375 -17.75 C 0.878906 -17.75 0.894531 -17.75 0.90625 -17.75 C 1.300781 -17.75 1.691406 -17.742188 2.078125 -17.734375 C 2.460938 -17.722656 2.851562 -17.710938 3.25 -17.703125 C 3.539062 -17.679688 3.6875 -17.566406 3.6875 -17.359375 C 3.6875 -17.160156 3.6875 -16.945312 3.6875 -16.71875 C 3.6875 -15.351562 3.6875 -13.972656 3.6875 -12.578125 C 3.6875 -11.191406 3.6875 -9.8125 3.6875 -8.4375 C 3.6875 -7.789062 3.679688 -7.132812 3.671875 -6.46875 C 3.660156 -5.8125 3.65625 -5.15625 3.65625 -4.5 C 3.65625 -3.894531 3.691406 -3.285156 3.765625 -2.671875 C 3.835938 -2.054688 3.832031 -1.4375 3.75 -0.8125 C 3.707031 -0.507812 3.601562 -0.3125 3.4375 -0.21875 C 3.28125 -0.132812 3.050781 -0.078125 2.75 -0.046875 C 2.601562 -0.0351562 2.382812 -0.0234375 2.09375 -0.015625 C 1.800781 -0.00390625 1.492188 -0.0195312 1.171875 -0.0625 C 0.847656 -0.101562 0.570312 -0.179688 0.34375 -0.296875 C 0.113281 -0.421875 0 -0.59375 0 -0.8125 C 0 -3.488281 0.00390625 -6.164062 0.015625 -8.84375 C 0.0234375 -11.53125 0.0195312 -14.210938 0 -16.890625 C 0 -17.210938 0.0546875 -17.429688 0.171875 -17.546875 C 0.296875 -17.660156 0.507812 -17.726562 0.8125 -17.75 Z M 0.8125 -17.75 "/></g></g></g><g fill="url(#skillflow-gradient)" fill-opacity="1"><g transform="translate(32.785495, 18.93491)"><g><path d="M 3.203125 -17.578125 C 3.234375 -17.566406 3.257812 -17.5625 3.28125 -17.5625 C 3.3125 -17.5625 3.332031 -17.550781 3.34375 -17.53125 C 3.476562 -17.46875 3.554688 -17.363281 3.578125 -17.21875 C 3.597656 -17.082031 3.601562 -16.941406 3.59375 -16.796875 C 3.59375 -15.535156 3.59375 -14.269531 3.59375 -13 C 3.59375 -11.726562 3.59375 -10.457031 3.59375 -9.1875 C 3.59375 -8.5625 3.59375 -7.9375 3.59375 -7.3125 C 3.59375 -6.695312 3.59375 -6.078125 3.59375 -5.453125 C 3.59375 -5.117188 3.582031 -4.785156 3.5625 -4.453125 C 3.550781 -4.128906 3.613281 -3.859375 3.75 -3.640625 C 3.894531 -3.429688 4.191406 -3.328125 4.640625 -3.328125 C 5.453125 -3.359375 6.265625 -3.375 7.078125 -3.375 C 7.890625 -3.375 8.703125 -3.375 9.515625 -3.375 C 9.691406 -3.375 9.90625 -3.382812 10.15625 -3.40625 C 10.40625 -3.425781 10.609375 -3.40625 10.765625 -3.34375 C 10.953125 -3.28125 11.078125 -3.128906 11.140625 -2.890625 C 11.210938 -2.648438 11.242188 -2.367188 11.234375 -2.046875 C 11.222656 -1.734375 11.203125 -1.429688 11.171875 -1.140625 C 11.140625 -0.859375 11.113281 -0.644531 11.09375 -0.5 C 11.082031 -0.46875 11.078125 -0.4375 11.078125 -0.40625 C 11.078125 -0.375 11.0625 -0.34375 11.03125 -0.3125 C 11 -0.28125 10.941406 -0.25 10.859375 -0.21875 C 10.265625 -0.0195312 9.625 0.046875 8.9375 -0.015625 C 8.257812 -0.0859375 7.617188 -0.128906 7.015625 -0.140625 C 6.265625 -0.140625 5.507812 -0.148438 4.75 -0.171875 C 3.988281 -0.203125 3.234375 -0.21875 2.484375 -0.21875 C 2.265625 -0.21875 1.96875 -0.203125 1.59375 -0.171875 C 1.226562 -0.140625 0.898438 -0.15625 0.609375 -0.21875 C 0.316406 -0.28125 0.144531 -0.460938 0.09375 -0.765625 C 0.0507812 -1.148438 0.03125 -1.539062 0.03125 -1.9375 C 0.03125 -2.332031 0.03125 -2.722656 0.03125 -3.109375 C 0.0078125 -3.910156 0.00390625 -4.695312 0.015625 -5.46875 C 0.0351562 -6.238281 0.0390625 -7.015625 0.03125 -7.796875 C 0.03125 -9.085938 0.03125 -10.375 0.03125 -11.65625 C 0.03125 -12.945312 0.046875 -14.238281 0.078125 -15.53125 C 0.078125 -15.800781 0.0546875 -16.113281 0.015625 -16.46875 C -0.0234375 -16.832031 0.0234375 -17.132812 0.171875 -17.375 C 0.304688 -17.601562 0.539062 -17.726562 0.875 -17.75 C 1.21875 -17.78125 1.570312 -17.769531 1.9375 -17.71875 C 2.300781 -17.675781 2.597656 -17.644531 2.828125 -17.625 C 2.890625 -17.625 2.953125 -17.617188 3.015625 -17.609375 C 3.078125 -17.609375 3.140625 -17.597656 3.203125 -17.578125 Z M 3.203125 -17.578125 "/></g></g></g><g fill="url(#skillflow-gradient)" fill-opacity="1"><g transform="translate(44.078408, 18.93491)"><g><path d="M 3.203125 -17.578125 C 3.234375 -17.566406 3.257812 -17.5625 3.28125 -17.5625 C 3.3125 -17.5625 3.332031 -17.550781 3.34375 -17.53125 C 3.476562 -17.46875 3.554688 -17.363281 3.578125 -17.21875 C 3.597656 -17.082031 3.601562 -16.941406 3.59375 -16.796875 C 3.59375 -15.535156 3.59375 -14.269531 3.59375 -13 C 3.59375 -11.726562 3.59375 -10.457031 3.59375 -9.1875 C 3.59375 -8.5625 3.59375 -7.9375 3.59375 -7.3125 C 3.59375 -6.695312 3.59375 -6.078125 3.59375 -5.453125 C 3.59375 -5.117188 3.582031 -4.785156 3.5625 -4.453125 C 3.550781 -4.128906 3.613281 -3.859375 3.75 -3.640625 C 3.894531 -3.429688 4.191406 -3.328125 4.640625 -3.328125 C 5.453125 -3.359375 6.265625 -3.375 7.078125 -3.375 C 7.890625 -3.375 8.703125 -3.375 9.515625 -3.375 C 9.691406 -3.375 9.90625 -3.382812 10.15625 -3.40625 C 10.40625 -3.425781 10.609375 -3.40625 10.765625 -3.34375 C 10.953125 -3.28125 11.078125 -3.128906 11.140625 -2.890625 C 11.210938 -2.648438 11.242188 -2.367188 11.234375 -2.046875 C 11.222656 -1.734375 11.203125 -1.429688 11.171875 -1.140625 C 11.140625 -0.859375 11.113281 -0.644531 11.09375 -0.5 C 11.082031 -0.46875 11.078125 -0.4375 11.078125 -0.40625 C 11.078125 -0.375 11.0625 -0.34375 11.03125 -0.3125 C 11 -0.28125 10.941406 -0.25 10.859375 -0.21875 C 10.265625 -0.0195312 9.625 0.046875 8.9375 -0.015625 C 8.257812 -0.0859375 7.617188 -0.128906 7.015625 -0.140625 C 6.265625 -0.140625 5.507812 -0.148438 4.75 -0.171875 C 3.988281 -0.203125 3.234375 -0.21875 2.484375 -0.21875 C 2.265625 -0.21875 1.96875 -0.203125 1.59375 -0.171875 C 1.226562 -0.140625 0.898438 -0.15625 0.609375 -0.21875 C 0.316406 -0.28125 0.144531 -0.460938 0.09375 -0.765625 C 0.0507812 -1.148438 0.03125 -1.539062 0.03125 -1.9375 C 0.03125 -2.332031 0.03125 -2.722656 0.03125 -3.109375 C 0.0078125 -3.910156 0.00390625 -4.695312 0.015625 -5.46875 C 0.0351562 -6.238281 0.0390625 -7.015625 0.03125 -7.796875 C 0.03125 -9.085938 0.03125 -10.375 0.03125 -11.65625 C 0.03125 -12.945312 0.046875 -14.238281 0.078125 -15.53125 C 0.078125 -15.800781 0.0546875 -16.113281 0.015625 -16.46875 C -0.0234375 -16.832031 0.0234375 -17.132812 0.171875 -17.375 C 0.304688 -17.601562 0.539062 -17.726562 0.875 -17.75 C 1.21875 -17.78125 1.570312 -17.769531 1.9375 -17.71875 C 2.300781 -17.675781 2.597656 -17.644531 2.828125 -17.625 C 2.890625 -17.625 2.953125 -17.617188 3.015625 -17.609375 C 3.078125 -17.609375 3.140625 -17.597656 3.203125 -17.578125 Z M 3.203125 -17.578125 "/></g></g></g><g fill="url(#skillflow-gradient)" fill-opacity="1"><g transform="translate(55.371321, 18.93491)"><g><path d="M 10.84375 -7.0625 C 9.957031 -7.0625 9.078125 -7.0625 8.203125 -7.0625 C 7.328125 -7.070312 6.453125 -7.078125 5.578125 -7.078125 C 5.316406 -7.078125 5.0625 -7.054688 4.8125 -7.015625 C 4.570312 -6.984375 4.351562 -6.863281 4.15625 -6.65625 C 3.945312 -6.445312 3.816406 -6.207031 3.765625 -5.9375 C 3.722656 -5.675781 3.710938 -5.441406 3.734375 -5.234375 C 3.742188 -4.585938 3.75 -3.941406 3.75 -3.296875 C 3.75 -2.648438 3.75 -2 3.75 -1.34375 C 3.75 -1.195312 3.75 -1.050781 3.75 -0.90625 C 3.75 -0.757812 3.75 -0.617188 3.75 -0.484375 C 3.738281 -0.347656 3.722656 -0.25 3.703125 -0.1875 C 3.691406 -0.125 3.601562 -0.0859375 3.4375 -0.078125 C 3.09375 -0.0546875 2.75 -0.0351562 2.40625 -0.015625 C 2.0625 -0.00390625 1.707031 -0.0078125 1.34375 -0.03125 C 1.207031 -0.03125 1.023438 -0.0195312 0.796875 0 C 0.566406 0.0195312 0.390625 -0.00390625 0.265625 -0.078125 C 0.148438 -0.140625 0.0820312 -0.222656 0.0625 -0.328125 C 0.0507812 -0.429688 0.046875 -0.546875 0.046875 -0.671875 C 0.0664062 -3.222656 0.0546875 -5.773438 0.015625 -8.328125 C -0.015625 -10.890625 -0.0078125 -13.445312 0.03125 -16 C 0.0390625 -16.207031 0.0351562 -16.46875 0.015625 -16.78125 C 0.00390625 -17.09375 0.078125 -17.328125 0.234375 -17.484375 C 0.367188 -17.609375 0.539062 -17.671875 0.75 -17.671875 C 0.96875 -17.671875 1.15625 -17.671875 1.3125 -17.671875 C 2.207031 -17.671875 3.101562 -17.675781 4 -17.6875 C 4.90625 -17.707031 5.804688 -17.71875 6.703125 -17.71875 C 7.609375 -17.757812 8.515625 -17.757812 9.421875 -17.71875 C 9.515625 -17.71875 9.695312 -17.722656 9.96875 -17.734375 C 10.238281 -17.742188 10.535156 -17.75 10.859375 -17.75 C 11.179688 -17.75 11.453125 -17.722656 11.671875 -17.671875 C 11.898438 -17.628906 12.015625 -17.550781 12.015625 -17.4375 C 12.015625 -17.019531 12.015625 -16.597656 12.015625 -16.171875 C 12.015625 -15.753906 12.015625 -15.335938 12.015625 -14.921875 C 12.015625 -14.679688 11.941406 -14.535156 11.796875 -14.484375 C 11.648438 -14.441406 11.484375 -14.429688 11.296875 -14.453125 C 11.117188 -14.484375 10.945312 -14.5 10.78125 -14.5 C 9.726562 -14.5 8.675781 -14.5 7.625 -14.5 C 6.570312 -14.5 5.519531 -14.5 4.46875 -14.5 C 4.3125 -14.5 4.171875 -14.441406 4.046875 -14.328125 C 3.929688 -14.210938 3.875 -14.070312 3.875 -13.90625 L 3.875 -10.890625 C 3.875 -10.566406 4 -10.382812 4.25 -10.34375 C 4.507812 -10.300781 4.75 -10.273438 4.96875 -10.265625 C 5.289062 -10.265625 5.609375 -10.265625 5.921875 -10.265625 C 6.242188 -10.265625 6.554688 -10.265625 6.859375 -10.265625 C 7.472656 -10.265625 8.085938 -10.269531 8.703125 -10.28125 C 9.328125 -10.300781 9.941406 -10.3125 10.546875 -10.3125 C 10.785156 -10.3125 11.019531 -10.28125 11.25 -10.21875 C 11.488281 -10.15625 11.625 -9.976562 11.65625 -9.6875 C 11.664062 -9.59375 11.664062 -9.492188 11.65625 -9.390625 C 11.65625 -9.296875 11.644531 -9.203125 11.625 -9.109375 C 11.613281 -8.953125 11.609375 -8.789062 11.609375 -8.625 C 11.617188 -8.457031 11.632812 -8.285156 11.65625 -8.109375 C 11.664062 -7.992188 11.675781 -7.890625 11.6875 -7.796875 C 11.707031 -7.703125 11.703125 -7.597656 11.671875 -7.484375 C 11.628906 -7.179688 11.421875 -7.03125 11.046875 -7.03125 C 11.003906 -7.050781 10.9375 -7.0625 10.84375 -7.0625 Z M 10.84375 -7.0625 "/></g></g></g><g fill="url(#skillflow-gradient)" fill-opacity="1"><g transform="translate(67.429875, 18.93491)"><g><path d="M 3.203125 -17.578125 C 3.234375 -17.566406 3.257812 -17.5625 3.28125 -17.5625 C 3.3125 -17.5625 3.332031 -17.550781 3.34375 -17.53125 C 3.476562 -17.46875 3.554688 -17.363281 3.578125 -17.21875 C 3.597656 -17.082031 3.601562 -16.941406 3.59375 -16.796875 C 3.59375 -15.535156 3.59375 -14.269531 3.59375 -13 C 3.59375 -11.726562 3.59375 -10.457031 3.59375 -9.1875 C 3.59375 -8.5625 3.59375 -7.9375 3.59375 -7.3125 C 3.59375 -6.695312 3.59375 -6.078125 3.59375 -5.453125 C 3.59375 -5.117188 3.582031 -4.785156 3.5625 -4.453125 C 3.550781 -4.128906 3.613281 -3.859375 3.75 -3.640625 C 3.894531 -3.429688 4.191406 -3.328125 4.640625 -3.328125 C 5.453125 -3.359375 6.265625 -3.375 7.078125 -3.375 C 7.890625 -3.375 8.703125 -3.375 9.515625 -3.375 C 9.691406 -3.375 9.90625 -3.382812 10.15625 -3.40625 C 10.40625 -3.425781 10.609375 -3.40625 10.765625 -3.34375 C 10.953125 -3.28125 11.078125 -3.128906 11.140625 -2.890625 C 11.210938 -2.648438 11.242188 -2.367188 11.234375 -2.046875 C 11.222656 -1.734375 11.203125 -1.429688 11.171875 -1.140625 C 11.140625 -0.859375 11.113281 -0.644531 11.09375 -0.5 C 11.082031 -0.46875 11.078125 -0.4375 11.078125 -0.40625 C 11.078125 -0.375 11.0625 -0.34375 11.03125 -0.3125 C 11 -0.28125 10.941406 -0.25 10.859375 -0.21875 C 10.265625 -0.0195312 9.625 0.046875 8.9375 -0.015625 C 8.257812 -0.0859375 7.617188 -0.128906 7.015625 -0.140625 C 6.265625 -0.140625 5.507812 -0.148438 4.75 -0.171875 C 3.988281 -0.203125 3.234375 -0.21875 2.484375 -0.21875 C 2.265625 -0.21875 1.96875 -0.203125 1.59375 -0.171875 C 1.226562 -0.140625 0.898438 -0.15625 0.609375 -0.21875 C 0.316406 -0.28125 0.144531 -0.460938 0.09375 -0.765625 C 0.0507812 -1.148438 0.03125 -1.539062 0.03125 -1.9375 C 0.03125 -2.332031 0.03125 -2.722656 0.03125 -3.109375 C 0.0078125 -3.910156 0.00390625 -4.695312 0.015625 -5.46875 C 0.0351562 -6.238281 0.0390625 -7.015625 0.03125 -7.796875 C 0.03125 -9.085938 0.03125 -10.375 0.03125 -11.65625 C 0.03125 -12.945312 0.046875 -14.238281 0.078125 -15.53125 C 0.078125 -15.800781 0.0546875 -16.113281 0.015625 -16.46875 C -0.0234375 -16.832031 0.0234375 -17.132812 0.171875 -17.375 C 0.304688 -17.601562 0.539062 -17.726562 0.875 -17.75 C 1.21875 -17.78125 1.570312 -17.769531 1.9375 -17.71875 C 2.300781 -17.675781 2.597656 -17.644531 2.828125 -17.625 C 2.890625 -17.625 2.953125 -17.617188 3.015625 -17.609375 C 3.078125 -17.609375 3.140625 -17.597656 3.203125 -17.578125 Z M 3.203125 -17.578125 "/></g></g></g><g fill="url(#skillflow-gradient)" fill-opacity="1"><g transform="translate(78.722793, 18.93491)"><g><path d="M 0 -8.875 C 0 -10.101562 0.234375 -11.253906 0.703125 -12.328125 C 1.171875 -13.410156 1.816406 -14.359375 2.640625 -15.171875 C 3.460938 -15.984375 4.414062 -16.617188 5.5 -17.078125 C 6.582031 -17.546875 7.738281 -17.78125 8.96875 -17.78125 L 9.015625 -17.78125 C 10.242188 -17.757812 11.4375 -17.523438 12.59375 -17.078125 C 13.75 -16.628906 14.757812 -15.960938 15.625 -15.078125 C 16.4375 -14.242188 17.046875 -13.296875 17.453125 -12.234375 C 17.867188 -11.171875 18.078125 -10.070312 18.078125 -8.9375 C 18.078125 -7.8125 17.878906 -6.71875 17.484375 -5.65625 C 17.097656 -4.59375 16.507812 -3.632812 15.71875 -2.78125 C 14.90625 -1.894531 13.9375 -1.222656 12.8125 -0.765625 C 11.6875 -0.304688 10.503906 -0.0546875 9.265625 -0.015625 C 8.035156 0.015625 6.84375 -0.171875 5.6875 -0.578125 C 4.539062 -0.992188 3.546875 -1.628906 2.703125 -2.484375 C 1.859375 -3.328125 1.195312 -4.316406 0.71875 -5.453125 C 0.238281 -6.585938 0 -7.726562 0 -8.875 Z M 9.09375 -14.78125 C 8.832031 -14.78125 8.570312 -14.757812 8.3125 -14.71875 C 8.050781 -14.6875 7.789062 -14.617188 7.53125 -14.515625 C 6.8125 -14.265625 6.171875 -13.867188 5.609375 -13.328125 C 5.054688 -12.796875 4.609375 -12.195312 4.265625 -11.53125 C 3.734375 -10.519531 3.519531 -9.445312 3.625 -8.3125 C 3.726562 -7.1875 4.125 -6.175781 4.8125 -5.28125 C 4.84375 -5.238281 4.875 -5.195312 4.90625 -5.15625 C 4.9375 -5.113281 4.96875 -5.078125 5 -5.046875 C 5.53125 -4.441406 6.140625 -3.96875 6.828125 -3.625 C 7.523438 -3.28125 8.257812 -3.097656 9.03125 -3.078125 C 9.800781 -3.066406 10.554688 -3.242188 11.296875 -3.609375 C 12.046875 -3.992188 12.660156 -4.503906 13.140625 -5.140625 C 13.628906 -5.773438 13.976562 -6.472656 14.1875 -7.234375 C 14.394531 -7.992188 14.457031 -8.765625 14.375 -9.546875 C 14.289062 -10.335938 14.066406 -11.085938 13.703125 -11.796875 C 13.335938 -12.515625 12.820312 -13.128906 12.15625 -13.640625 C 11.707031 -13.984375 11.222656 -14.253906 10.703125 -14.453125 C 10.179688 -14.660156 9.644531 -14.769531 9.09375 -14.78125 Z M 9.09375 -14.78125 "/></g></g></g><g clip-path="url(#ee5af9b946)"><g fill="url(#skillflow-gradient)" fill-opacity="1"><g transform="translate(96.858616, 18.93491)"><g><path d="M 15.9375 -2.34375 C 15.582031 -3.664062 15.203125 -4.976562 14.796875 -6.28125 C 14.398438 -7.59375 13.988281 -8.894531 13.5625 -10.1875 C 13.445312 -10.539062 13.234375 -10.753906 12.921875 -10.828125 C 12.617188 -10.910156 12.335938 -10.800781 12.078125 -10.5 C 11.984375 -10.382812 11.90625 -10.25 11.84375 -10.09375 C 11.789062 -9.945312 11.742188 -9.804688 11.703125 -9.671875 C 11.265625 -8.296875 10.828125 -6.914062 10.390625 -5.53125 C 9.953125 -4.15625 9.519531 -2.78125 9.09375 -1.40625 C 9.03125 -1.15625 8.953125 -0.90625 8.859375 -0.65625 C 8.773438 -0.40625 8.597656 -0.242188 8.328125 -0.171875 C 8.066406 -0.109375 7.78125 -0.09375 7.46875 -0.125 C 7.164062 -0.15625 6.878906 -0.171875 6.609375 -0.171875 C 6.523438 -0.171875 6.441406 -0.171875 6.359375 -0.171875 C 6.285156 -0.179688 6.207031 -0.203125 6.125 -0.234375 C 5.914062 -0.316406 5.738281 -0.492188 5.59375 -0.765625 C 5.445312 -1.035156 5.328125 -1.34375 5.234375 -1.6875 C 5.140625 -2.039062 5.0625 -2.378906 5 -2.703125 C 4.9375 -3.035156 4.863281 -3.300781 4.78125 -3.5 C 4.5625 -4.164062 4.332031 -4.832031 4.09375 -5.5 C 3.851562 -6.164062 3.617188 -6.835938 3.390625 -7.515625 C 2.929688 -8.847656 2.46875 -10.1875 2 -11.53125 C 1.53125 -12.875 1.054688 -14.210938 0.578125 -15.546875 C 0.523438 -15.703125 0.441406 -15.894531 0.328125 -16.125 C 0.222656 -16.363281 0.132812 -16.585938 0.0625 -16.796875 C -0.0078125 -17.015625 -0.0195312 -17.203125 0.03125 -17.359375 C 0.09375 -17.523438 0.257812 -17.613281 0.53125 -17.625 C 0.90625 -17.65625 1.335938 -17.6875 1.828125 -17.71875 C 2.316406 -17.757812 2.773438 -17.722656 3.203125 -17.609375 C 3.628906 -17.492188 3.929688 -17.222656 4.109375 -16.796875 C 4.273438 -16.441406 4.410156 -16.066406 4.515625 -15.671875 C 4.628906 -15.273438 4.742188 -14.890625 4.859375 -14.515625 C 5.035156 -13.929688 5.234375 -13.332031 5.453125 -12.71875 C 5.679688 -12.113281 5.90625 -11.503906 6.125 -10.890625 C 6.363281 -10.265625 6.601562 -9.617188 6.84375 -8.953125 C 6.957031 -8.679688 7.148438 -8.546875 7.421875 -8.546875 C 7.691406 -8.546875 7.898438 -8.695312 8.046875 -9 C 8.203125 -9.300781 8.320312 -9.632812 8.40625 -10 C 8.5 -10.363281 8.566406 -10.632812 8.609375 -10.8125 C 8.785156 -11.34375 8.957031 -11.863281 9.125 -12.375 C 9.289062 -12.894531 9.453125 -13.421875 9.609375 -13.953125 C 9.691406 -14.191406 9.773438 -14.503906 9.859375 -14.890625 C 9.953125 -15.285156 10.066406 -15.6875 10.203125 -16.09375 C 10.335938 -16.5 10.507812 -16.835938 10.71875 -17.109375 C 10.9375 -17.390625 11.210938 -17.539062 11.546875 -17.5625 C 11.921875 -17.59375 12.242188 -17.613281 12.515625 -17.625 C 12.785156 -17.644531 13.023438 -17.65625 13.234375 -17.65625 C 13.691406 -17.65625 14.039062 -17.570312 14.28125 -17.40625 C 14.519531 -17.238281 14.703125 -17.003906 14.828125 -16.703125 C 14.953125 -16.398438 15.082031 -16.039062 15.21875 -15.625 C 15.53125 -14.601562 15.859375 -13.582031 16.203125 -12.5625 C 16.546875 -11.550781 16.925781 -10.550781 17.34375 -9.5625 C 17.375 -9.488281 17.410156 -9.40625 17.453125 -9.3125 C 17.503906 -9.226562 17.5625 -9.15625 17.625 -9.09375 C 17.820312 -8.894531 18.007812 -8.851562 18.1875 -8.96875 C 18.375 -9.09375 18.554688 -9.296875 18.734375 -9.578125 C 18.910156 -9.867188 19.066406 -10.191406 19.203125 -10.546875 C 19.335938 -10.898438 19.453125 -11.222656 19.546875 -11.515625 C 19.640625 -11.816406 19.710938 -12.019531 19.765625 -12.125 C 20.078125 -12.875 20.375 -13.628906 20.65625 -14.390625 C 20.9375 -15.160156 21.15625 -15.945312 21.3125 -16.75 C 21.394531 -17.164062 21.546875 -17.410156 21.765625 -17.484375 C 21.992188 -17.566406 22.289062 -17.613281 22.65625 -17.625 C 22.925781 -17.625 23.195312 -17.644531 23.46875 -17.6875 C 23.75 -17.726562 24.03125 -17.757812 24.3125 -17.78125 C 24.675781 -17.78125 24.960938 -17.742188 25.171875 -17.671875 C 25.390625 -17.597656 25.4375 -17.351562 25.3125 -16.9375 C 25.019531 -16.03125 24.710938 -15.125 24.390625 -14.21875 C 24.078125 -13.320312 23.757812 -12.425781 23.4375 -11.53125 C 23.09375 -10.519531 22.742188 -9.515625 22.390625 -8.515625 C 22.035156 -7.515625 21.6875 -6.507812 21.34375 -5.5 C 21.164062 -5.007812 20.984375 -4.503906 20.796875 -3.984375 C 20.617188 -3.460938 20.441406 -2.945312 20.265625 -2.4375 C 20.210938 -2.28125 20.144531 -2.039062 20.0625 -1.71875 C 19.988281 -1.40625 19.894531 -1.101562 19.78125 -0.8125 C 19.664062 -0.519531 19.53125 -0.320312 19.375 -0.21875 C 19.28125 -0.164062 19.171875 -0.140625 19.046875 -0.140625 C 18.722656 -0.109375 18.367188 -0.0664062 17.984375 -0.015625 C 17.609375 0.0234375 17.265625 -0.03125 16.953125 -0.1875 C 16.648438 -0.351562 16.4375 -0.632812 16.3125 -1.03125 C 16.1875 -1.425781 16.082031 -1.773438 16 -2.078125 C 15.988281 -2.128906 15.976562 -2.171875 15.96875 -2.203125 C 15.957031 -2.242188 15.945312 -2.289062 15.9375 -2.34375 Z M 15.9375 -2.34375 "/></g></g></g></g></g></g></g><g clip-path="url(#dfff2a2a2a)"><g clip-path="url(#48746089ea)"><g transform="matrix(1, 0, 0, 1, 79, 7)"><g clip-path="url(#b2304bd611)"><g clip-path="url(#93afa131c7)"><g clip-path="url(#ed4ef59e2d)"><path fill="url(#skillflow-gradient)" d="M 0.722656 0.0585938 L 17.082031 0.0585938 L 17.082031 16.417969 L 0.722656 16.417969 Z M 0.722656 0.0585938 " fill-opacity="1" fill-rule="nonzero"/></g></g></g></g></g></g><g clip-path="url(#6294a8e6f9)"><g clip-path="url(#7ce44542de)"><g transform="matrix(1, 0, 0, 1, 28, -0.000000000000001776)"><g clip-path="url(#9e465410ba)"><g clip-path="url(#156138e002)"><g clip-path="url(#b0e8dbd87a)"><path fill="url(#skillflow-gradient)" d="M 0.714844 0.699219 L 5.285156 0.699219 L 5.285156 5.273438 L 0.714844 5.273438 Z M 0.714844 0.699219 " fill-opacity="1" fill-rule="nonzero"/></g></g></g></g></g></g><g clip-path="url(#0af72a945d)"><g transform="matrix(1, 0, 0, 1, 97, -0.000000000000001776)"><g clip-path="url(#2622c59120)"><g clip-path="url(#95439e4b9c)"><path fill="url(#skillflow-gradient)" d="M 0.0429688 0.699219 L 25.820312 0.699219 L 25.820312 2.988281 L 0.0429688 2.988281 Z M 0.0429688 0.699219 " fill-opacity="1" fill-rule="nonzero"/></g></g></g></g></g></g></svg>